<!-- metallb's own mark, from cncf/artwork projects/metallb/icon/color. Optimised for size only; the drawing is unchanged. -->
<svg xmlns="http://www.w3.org/2000/svg" id="Layer_1" data-name="Layer 1" viewBox="0 0 300 300"><defs><style>.cls-1{fill:#3f51b4}</style></defs><path d="M231.63 227.94c-30.008-17.332-58.711-33.908-87.411-50.49-13.25-7.656-26.42-15.453-39.784-22.9-3.77-2.103-4.282-3.846-2.499-7.878 12.373-27.982 24.414-56.112 36.58-84.187 2.107-4.863 3.762-10.034 10.67-10.12 6.912-.086 8.63 4.876 10.784 9.85q34.579 79.81 69.257 159.576c.658 1.519 1.21 3.085 2.403 6.148M96.151 159.98c1.767-4.154 3.184-4.776 7.248-2.31 13.721 8.332 27.74 16.175 42.547 24.724l-77.67 44.92" class="cls-1"/><path d="M149.87 293.907a143.954 143.954 0 1 1 143.953-143.953A143.954 143.954 0 0 1 149.87 293.907m0-272.568a128.615 128.615 0 1 0 128.615 128.615A128.615 128.615 0 0 0 149.87 21.339" class="cls-1"/></svg>
